<svg version="1.1" viewBox="0.0 0.0 960.0 720.0" fill="none" stroke="none" stroke-linecap="square" stroke-miterlimit="10" xmlns:xlink="http://www.w3.org/1999/xlink" xmlns="http://www.w3.org/2000/svg"><clipPath id="p.0"><path d="m0 0l960.0 0l0 720.0l-960.0 0l0 -720.0z" clip-rule="nonzero"/></clipPath><g clip-path="url(#p.0)"><path fill="#000000" fill-opacity="0.0" d="m0 0l960.0 0l0 720.0l-960.0 0z" fill-rule="evenodd"/><path fill="#000000" fill-opacity="0.0" d="m44.42958 367.67072l0 0c11.231628 1.3117065 22.345093 -2.969513 28.387764 -10.935791c6.042679 -7.9662476 5.889328 -18.134125 -0.39170837 -25.972351c-6.2810364 -7.838257 -17.520142 -11.887268 -28.70869 -10.342651z" fill-rule="evenodd"/><path stroke="#000000" stroke-width="4.0" stroke-linejoin="round" stroke-linecap="butt" d="m44.42958 367.67072l0 0c11.231628 1.3117065 22.345093 -2.969513 28.387764 -10.935791c6.042679 -7.9662476 5.889328 -18.134125 -0.39170837 -25.972351c-6.2810364 -7.838257 -17.520142 -11.887268 -28.70869 -10.342651z" fill-rule="evenodd"/><path fill="#000000" d="m41.71621 328.91745l-9.954548 0l0 2.4311829l9.954548 0z" fill-rule="evenodd"/><path stroke="#000000" stroke-width="4.0" stroke-linejoin="round" stroke-linecap="butt" d="m41.71621 328.91745l-9.954548 0l0 2.4311829l9.954548 0z" fill-rule="evenodd"/><path fill="#000000" d="m41.71621 342.78433l-9.954548 0l0 2.4311829l9.954548 0z" fill-rule="evenodd"/><path stroke="#000000" stroke-width="4.0" stroke-linejoin="round" stroke-linecap="butt" d="m41.71621 342.78433l-9.954548 0l0 2.4311829l9.954548 0z" fill-rule="evenodd"/><path fill="#000000" d="m41.71621 356.6512l-9.954548 0l0 2.4311829l9.954548 0z" fill-rule="evenodd"/><path stroke="#000000" stroke-width="4.0" stroke-linejoin="round" stroke-linecap="butt" d="m41.71621 356.6512l-9.954548 0l0 2.4311829l9.954548 0z" fill-rule="evenodd"/><path fill="#000000" fill-opacity="0.0" d="m925.7635 399.67072l0 0c-11.231628 1.3117065 -22.345093 -2.969513 -28.387756 -10.935791c-6.0426636 -7.9662476 -5.8893433 -18.134125 0.39172363 -25.972351c6.281006 -7.838257 17.520142 -11.887268 28.70868 -10.342651z" fill-rule="evenodd"/><path stroke="#000000" stroke-width="4.0" stroke-linejoin="round" stroke-linecap="butt" d="m925.7635 399.67072l0 0c-11.231628 1.3117065 -22.345093 -2.969513 -28.387756 -10.935791c-6.0426636 -7.9662476 -5.8893433 -18.134125 0.39172363 -25.972351c6.281006 -7.838257 17.520142 -11.887268 28.70868 -10.342651z" fill-rule="evenodd"/><path fill="#000000" d="m928.47687 360.91745l9.954529 0l0 2.4311829l-9.954529 0z" fill-rule="evenodd"/><path stroke="#000000" stroke-width="4.0" stroke-linejoin="round" stroke-linecap="butt" d="m928.47687 360.91745l9.954529 0l0 2.4311829l-9.954529 0z" fill-rule="evenodd"/><path fill="#000000" d="m928.47687 374.78433l9.954529 0l0 2.4311829l-9.954529 0z" fill-rule="evenodd"/><path stroke="#000000" stroke-width="4.0" stroke-linejoin="round" stroke-linecap="butt" d="m928.47687 374.78433l9.954529 0l0 2.4311829l-9.954529 0z" fill-rule="evenodd"/><path fill="#000000" d="m928.47687 388.6512l9.954529 0l0 2.4311829l-9.954529 0z" fill-rule="evenodd"/><path stroke="#000000" stroke-width="4.0" stroke-linejoin="round" stroke-linecap="butt" d="m928.47687 388.6512l9.954529 0l0 2.4311829l-9.954529 0z" fill-rule="evenodd"/><path fill="#000000" fill-opacity="0.0" d="m77.74541 346.03674c203.6693 0 305.5039 7.897644 407.33856 15.795288c101.834656 7.8976135 203.66931 15.795258 407.33856 15.795258" fill-rule="evenodd"/><path stroke="#000000" stroke-width="4.0" stroke-linejoin="round" stroke-linecap="butt" d="m77.74541 346.03674c203.6693 0 305.5039 7.897644 407.33856 15.795288c101.834656 7.8976135 203.66931 15.795258 407.33856 15.795258" fill-rule="evenodd"/></g></svg>